<svg width="25" height="25" viewBox="0 0 25 25" fill="none" xmlns="http://www.w3.org/2000/svg">
<path fill-rule="evenodd" clip-rule="evenodd" d="M21.9998 2.36809C21.6093 1.97756 20.9761 1.97756 20.5856 2.36809L19.7132 3.24044C18.5981 2.70774 17.2221 2.90321 16.2984 3.82684L5.69182 14.4334L11.3487 20.0903L21.9553 9.4837C22.8789 8.56006 23.0744 7.184 22.5417 6.06887L23.414 5.19652C23.8045 4.80599 23.8045 4.17283 23.414 3.7823L21.9998 2.36809ZM17.7318 10.8787L11.3487 17.2619L8.52024 14.4334L14.9034 8.0503L17.7318 10.8787ZM19.5501 9.06045L20.5411 8.06948C20.9316 7.67896 20.9316 7.04579 20.5411 6.65527L19.1268 5.24106C18.7363 4.85053 18.1032 4.85053 17.7126 5.24106L16.7217 6.23202L19.5501 9.06045Z" fill="black"/>
<path d="M2.73633 23.0254L4.85804 15.2468L10.5145 20.9041L2.73633 23.0254Z" fill="black"/>
</svg>
